%TF.GenerationSoftware,KiCad,Pcbnew,(6.0.7)*%
%TF.CreationDate,2022-09-18T15:45:32+05:30*%
%TF.ProjectId,Irrigation Project,49727269-6761-4746-996f-6e2050726f6a,V1.0*%
%TF.SameCoordinates,Original*%
%TF.FileFunction,Soldermask,Bot*%
%TF.FilePolarity,Negative*%
%FSLAX46Y46*%
G04 Gerber Fmt 4.6, Leading zero omitted, Abs format (unit mm)*
G04 Created by KiCad (PCBNEW (6.0.7)) date 2022-09-18 15:45:32*
%MOMM*%
%LPD*%
G01*
G04 APERTURE LIST*
%ADD10R,1.600000X1.600000*%
%ADD11C,1.600000*%
%ADD12C,2.200000*%
%ADD13O,2.200000X2.200000*%
%ADD14R,1.700000X1.700000*%
%ADD15O,1.700000X1.700000*%
%ADD16C,3.200000*%
%ADD17O,3.500000X3.500000*%
%ADD18R,1.905000X2.000000*%
%ADD19O,1.905000X2.000000*%
%ADD20R,2.000000X2.000000*%
%ADD21C,2.000000*%
%ADD22R,1.350000X1.350000*%
%ADD23O,1.350000X1.350000*%
%ADD24O,1.600000X1.600000*%
%ADD25R,2.800000X2.800000*%
%ADD26C,2.800000*%
%ADD27R,3.200000X3.200000*%
%ADD28O,3.200000X3.200000*%
G04 APERTURE END LIST*
D10*
%TO.C,C15*%
X107694888Y-153100000D03*
D11*
X110194888Y-153100000D03*
%TD*%
D12*
%TO.C,L1*%
X146690000Y-46125000D03*
D13*
X154310000Y-46125000D03*
%TD*%
D14*
%TO.C,J8*%
X151925000Y-183000000D03*
D15*
X149385000Y-183000000D03*
X146845000Y-183000000D03*
X144305000Y-183000000D03*
X141765000Y-183000000D03*
X139225000Y-183000000D03*
X136685000Y-183000000D03*
X134145000Y-183000000D03*
X131605000Y-183000000D03*
X129065000Y-183000000D03*
X126525000Y-183000000D03*
X123985000Y-183000000D03*
X121445000Y-183000000D03*
X118905000Y-183000000D03*
X116365000Y-183000000D03*
X113825000Y-183000000D03*
X111285000Y-183000000D03*
X108745000Y-183000000D03*
X106205000Y-183000000D03*
X103665000Y-183000000D03*
X101125000Y-183000000D03*
X98585000Y-183000000D03*
X96045000Y-183000000D03*
%TD*%
D14*
%TO.C,J1*%
X125300000Y-22800000D03*
D15*
X122760000Y-22800000D03*
%TD*%
D16*
%TO.C,H2*%
X160000000Y-184700000D03*
%TD*%
D10*
%TO.C,C14*%
X148700000Y-152800000D03*
D11*
X151200000Y-152800000D03*
%TD*%
D17*
%TO.C,Q1*%
X155200000Y-70670000D03*
D18*
X152660000Y-87330000D03*
D19*
X155200000Y-87330000D03*
X157740000Y-87330000D03*
%TD*%
D14*
%TO.C,J5*%
X131200000Y-172300000D03*
D15*
X128660000Y-172300000D03*
X126120000Y-172300000D03*
X123580000Y-172300000D03*
X121040000Y-172300000D03*
X118500000Y-172300000D03*
X115960000Y-172300000D03*
%TD*%
D20*
%TO.C,C10*%
X124300000Y-50217677D03*
D21*
X124300000Y-45217677D03*
%TD*%
D16*
%TO.C,H4*%
X88200000Y-184550000D03*
%TD*%
D22*
%TO.C,J7*%
X158800000Y-120500000D03*
D23*
X158800000Y-122500000D03*
X158800000Y-124500000D03*
X158800000Y-126500000D03*
X158800000Y-128500000D03*
X158800000Y-130500000D03*
%TD*%
D10*
%TO.C,U4*%
X158800000Y-160800000D03*
D24*
X156260000Y-160800000D03*
X153720000Y-160800000D03*
X151180000Y-160800000D03*
X148640000Y-160800000D03*
X146100000Y-160800000D03*
X143560000Y-160800000D03*
X141020000Y-160800000D03*
X138480000Y-160800000D03*
X138480000Y-168420000D03*
X141020000Y-168420000D03*
X143560000Y-168420000D03*
X146100000Y-168420000D03*
X148640000Y-168420000D03*
X151180000Y-168420000D03*
X153720000Y-168420000D03*
X156260000Y-168420000D03*
X158800000Y-168420000D03*
%TD*%
D16*
%TO.C,H3*%
X88300000Y-21100000D03*
%TD*%
D14*
%TO.C,J3*%
X158600000Y-104025000D03*
D15*
X158600000Y-106565000D03*
%TD*%
D14*
%TO.C,J2*%
X150000000Y-126600000D03*
D15*
X150000000Y-124060000D03*
X150000000Y-121520000D03*
X150000000Y-118980000D03*
%TD*%
D16*
%TO.C,H1*%
X160100000Y-21125000D03*
%TD*%
D25*
%TO.C,J6*%
X92750000Y-84200000D03*
D26*
X92750000Y-89200000D03*
X92750000Y-94200000D03*
X92750000Y-99200000D03*
%TD*%
D27*
%TO.C,D4*%
X136400000Y-46205000D03*
D28*
X136400000Y-61445000D03*
%TD*%
D12*
%TO.C,L2*%
X100590000Y-54700000D03*
D13*
X108210000Y-54700000D03*
%TD*%
D20*
%TO.C,C9*%
X152067677Y-59025000D03*
D21*
X147067677Y-59025000D03*
%TD*%
D27*
%TO.C,D5*%
X100580000Y-45400000D03*
D28*
X115820000Y-45400000D03*
%TD*%
D14*
%TO.C,J4*%
X158600000Y-93525000D03*
D15*
X158600000Y-96065000D03*
%TD*%
D10*
%TO.C,U5*%
X109850000Y-160800000D03*
D24*
X107310000Y-160800000D03*
X104770000Y-160800000D03*
X102230000Y-160800000D03*
X99690000Y-160800000D03*
X97150000Y-160800000D03*
X94610000Y-160800000D03*
X92070000Y-160800000D03*
X89530000Y-160800000D03*
X89530000Y-168420000D03*
X92070000Y-168420000D03*
X94610000Y-168420000D03*
X97150000Y-168420000D03*
X99690000Y-168420000D03*
X102230000Y-168420000D03*
X104770000Y-168420000D03*
X107310000Y-168420000D03*
X109850000Y-168420000D03*
%TD*%
G36*
X123592121Y-76570002D02*
G01*
X123638614Y-76623658D01*
X123650000Y-76676000D01*
X123650000Y-95624000D01*
X123629998Y-95692121D01*
X123576342Y-95738614D01*
X123524000Y-95750000D01*
X108976000Y-95750000D01*
X108907879Y-95729998D01*
X108861386Y-95676342D01*
X108850000Y-95624000D01*
X108850000Y-76676000D01*
X108870002Y-76607879D01*
X108923658Y-76561386D01*
X108976000Y-76550000D01*
X123524000Y-76550000D01*
X123592121Y-76570002D01*
G37*
M02*
