M48
; DRILL file {KiCad (6.0.7)} date Sun Sep 18 15:45:41 2022
; FORMAT={-:-/ absolute / inch / decimal}
; #@! TF.CreationDate,2022-09-18T15:45:41+05:30
; #@! TF.GenerationSoftware,Kicad,Pcbnew,(6.0.7)
; #@! TF.FileFunction,Plated,1,2,PTH
FMAT,2
INCH
; #@! TA.AperFunction,Plated,PTH,ViaDrill
T1C0.0118
; #@! TA.AperFunction,Plated,PTH,ViaDrill
T2C0.0157
; #@! TA.AperFunction,Plated,PTH,ComponentDrill
T3C0.0315
; #@! TA.AperFunction,Plated,PTH,ComponentDrill
T4C0.0394
; #@! TA.AperFunction,Plated,PTH,ComponentDrill
T5C0.0433
; #@! TA.AperFunction,Plated,PTH,ComponentDrill
T6C0.0551
; #@! TA.AperFunction,Plated,PTH,ComponentDrill
T7C0.0630
%
G90
G05
T1
X4.5177Y-3.376
X4.5197Y-3.2894
X4.5197Y-3.3307
X4.5197Y-3.4193
X4.5197Y-3.4665
X4.5335Y-3.3543
X4.5335Y-3.3976
X4.5335Y-3.4429
X4.5354Y-3.311
X4.5472Y-3.376
X4.5472Y-3.4193
X4.5472Y-3.4665
X4.5492Y-3.2894
X4.5492Y-3.3327
X4.561Y-3.3976
X4.561Y-3.4429
X4.563Y-3.311
X4.563Y-3.3543
X4.5748Y-3.376
X4.5748Y-3.4665
X4.5768Y-3.2894
X4.5768Y-3.3327
X4.5768Y-3.4193
X4.5886Y-3.4429
X4.5906Y-3.311
X4.5906Y-3.3543
X4.5906Y-3.3976
X4.6024Y-3.4665
X4.6043Y-3.2894
X4.6043Y-3.3327
X4.6043Y-3.376
X4.6043Y-3.4213
X4.6161Y-3.311
X4.6161Y-3.4429
X4.6181Y-3.3543
X4.6181Y-3.3976
T2
X3.7795Y-2.878
X3.8622Y-3.0551
X3.937Y-5.8189
X3.9567Y-4.8937
X3.9843Y-3.3425
X3.9862Y-4.5098
X4.0315Y-3.5433
X4.0394Y-3.7087
X4.0748Y-5.2874
X4.0906Y-3.5354
X4.1437Y-4.3819
X4.1732Y-4.9528
X4.1929Y-5.5433
X4.2126Y-5.0709
X4.2224Y-3.5157
X4.2313Y-3.2874
X4.3701Y-4.2638
X4.3898Y-4.4409
X4.5079Y-4.8582
X4.5079Y-5.8583
X4.5079Y-6.311
X4.5669Y-5.4055
X4.5866Y-5.0709
X4.6068Y-4.8932
X4.6555Y-3.9882
X4.685Y-4.1654
X4.7835Y-5.3268
X4.8622Y-4.6772
X4.9075Y-3.9449
X4.9213Y-3.6142
X4.9317Y-3.4834
X4.9409Y-4.0472
X4.9409Y-5.2677
X4.9469Y-3.2795
X4.9606Y-3.3189
X4.9606Y-3.3583
X4.9606Y-3.3976
X4.9606Y-3.4567
X4.9606Y-3.6142
X4.9803Y-5.1299
X4.9941Y-3.874
X5.0197Y-5.3465
X5.0787Y-5.563
X5.128Y-3.2795
X5.1969Y-4.6575
X5.1969Y-6.2756
X5.2559Y-4.0866
X5.2559Y-4.9606
X5.315Y-3.6929
X5.3346Y-4.8543
X5.3937Y-4.6181
X5.7087Y-3.3189
X5.7874Y-4.3819
X5.8465Y-2.9646
X6.0433Y-5.3858
X6.0433Y-5.6614
X6.0827Y-4.9921
X6.122Y-5.2677
X6.374Y-5.6575
T3
X3.5248Y-6.3307
X3.5248Y-6.6307
X3.6248Y-6.3307
X3.6248Y-6.6307
X3.7248Y-6.3307
X3.7248Y-6.6307
X3.8248Y-6.3307
X3.8248Y-6.6307
X3.9248Y-6.3307
X3.9248Y-6.6307
X4.0248Y-6.3307
X4.0248Y-6.6307
X4.1248Y-6.3307
X4.1248Y-6.6307
X4.2248Y-6.3307
X4.2248Y-6.6307
X4.24Y-6.0276
X4.3248Y-6.3307
X4.3248Y-6.6307
X4.3384Y-6.0276
X5.452Y-6.3307
X5.452Y-6.6307
X5.552Y-6.3307
X5.552Y-6.6307
X5.652Y-6.3307
X5.652Y-6.6307
X5.752Y-6.3307
X5.752Y-6.6307
X5.852Y-6.3307
X5.852Y-6.6307
X5.8543Y-6.0157
X5.952Y-6.3307
X5.952Y-6.6307
X5.9528Y-6.0157
X6.052Y-6.3307
X6.052Y-6.6307
X6.152Y-6.3307
X6.152Y-6.6307
X6.252Y-4.7441
X6.252Y-4.8228
X6.252Y-4.9016
X6.252Y-4.9803
X6.252Y-5.0591
X6.252Y-5.1378
X6.252Y-6.3307
X6.252Y-6.6307
T4
X3.7813Y-7.2047
X3.8813Y-7.2047
X3.9813Y-7.2047
X4.0813Y-7.2047
X4.1813Y-7.2047
X4.2813Y-7.2047
X4.3813Y-7.2047
X4.4813Y-7.2047
X4.5654Y-6.7835
X4.5813Y-7.2047
X4.6654Y-6.7835
X4.6813Y-7.2047
X4.7654Y-6.7835
X4.7813Y-7.2047
X4.8331Y-0.8976
X4.8654Y-6.7835
X4.8813Y-7.2047
X4.8937Y-1.7802
X4.8937Y-1.9771
X4.9331Y-0.8976
X4.9654Y-6.7835
X4.9813Y-7.2047
X5.0654Y-6.7835
X5.0813Y-7.2047
X5.1654Y-6.7835
X5.1813Y-7.2047
X5.2813Y-7.2047
X5.3813Y-7.2047
X5.4813Y-7.2047
X5.5813Y-7.2047
X5.6813Y-7.2047
X5.7813Y-7.2047
X5.7901Y-2.3238
X5.8813Y-7.2047
X5.9055Y-4.6843
X5.9055Y-4.7843
X5.9055Y-4.8843
X5.9055Y-4.9843
X5.9813Y-7.2047
X5.9869Y-2.3238
X6.2441Y-3.6821
X6.2441Y-3.7821
X6.2441Y-4.0955
X6.2441Y-4.1955
T5
X3.9602Y-2.1535
X4.2602Y-2.1535
X5.7752Y-1.8159
X6.0102Y-3.4382
X6.0752Y-1.8159
X6.1102Y-3.4382
X6.2102Y-3.4382
T6
X3.6516Y-3.315
X3.6516Y-3.5118
X3.6516Y-3.7087
X3.6516Y-3.9055
T7
X3.9598Y-1.7874
X4.5598Y-1.7874
X5.3701Y-1.8191
X5.3701Y-2.4191
T0
M30
